<svg xmlns="http://www.w3.org/2000/svg" viewBox="0 0 100 100"><defs><style>.cls-1{fill:#e8f4f9;}.cls-2{fill:#58b8f5;}</style></defs><path class="cls-1" d="M32.36,43.27H68.5a1.94,1.94,0,0,1,1.89,2.37L68,58.31a1.94,1.94,0,0,1-1.89,1.5h-28"/><path class="cls-2" d="M43.32,70.13a3.76,3.76,0,1,0,3.76,3.75A3.75,3.75,0,0,0,43.32,70.13Zm0,6a2.26,2.26,0,1,1,2.26-2.26A2.26,2.26,0,0,1,43.32,76.14Z"/><path class="cls-2" d="M61.92,70.13a3.76,3.76,0,1,0,3.75,3.75A3.76,3.76,0,0,0,61.92,70.13Zm0,6a2.26,2.26,0,1,1,2.25-2.26A2.26,2.26,0,0,1,61.92,76.14Z"/><path class="cls-2" d="M70.61,43.53a2.7,2.7,0,0,0-2.11-1H32.9L32,39.86a2.49,2.49,0,0,0-2.38-1.72H20.88a.75.75,0,1,0,0,1.5h8.78a1,1,0,0,1,.95.69l8,24.57A2.48,2.48,0,0,0,41,66.63H66.63a.75.75,0,0,0,0-1.5H41a1,1,0,0,1-.94-.69l-1.26-3.88H66.11a2.68,2.68,0,0,0,2.63-2.11l2.38-12.64A2.66,2.66,0,0,0,70.61,43.53Zm-1,2L67.27,58.14a1.19,1.19,0,0,1-1.16.92H38.28L33.39,44H68.5a1.17,1.17,0,0,1,.93.44A1.2,1.2,0,0,1,69.65,45.5Z"/><path class="cls-2" d="M53.85,34.14H50.6V30.89a.75.75,0,0,0-1.5,0v3.25H45.85a.75.75,0,0,0,0,1.5H49.1v3.25a.75.75,0,0,0,1.5,0V35.64h3.25a.75.75,0,1,0,0-1.5Z"/><path class="cls-2" d="M67.85,26.14H63.6V21.89a.75.75,0,0,0-1.5,0v4.25H57.85a.75.75,0,0,0,0,1.5H62.1v4.25a.75.75,0,1,0,1.5,0V27.64h4.25a.75.75,0,0,0,0-1.5Z"/></svg>