<svg xmlns="http://www.w3.org/2000/svg" viewBox="0 0 100 100"><defs><style>.cls-1{opacity:0.5;}.cls-2{fill:#58b8f5;}.cls-3{opacity:0.3;}.cls-4{fill:#e8f4f9;}.cls-5{fill:#fff;}</style></defs><g class="cls-1"><path class="cls-2" d="M62.78,49.88H29.44a.75.75,0,0,1,0-1.5H62.78a.75.75,0,0,1,0,1.5Z"/></g><g class="cls-1"><path class="cls-2" d="M62.78,53.6H29.44a.75.75,0,0,1,0-1.5H62.78a.75.75,0,0,1,0,1.5Z"/></g><g class="cls-1"><path class="cls-2" d="M58.43,57.31H33.79a.75.75,0,1,1,0-1.5H58.43a.75.75,0,1,1,0,1.5Z"/></g><g class="cls-3"><circle class="cls-2" cx="46.11" cy="38.2" r="6.37"/></g><path class="cls-2" d="M73.66,66.27H20.1a2.77,2.77,0,0,1-2.77-2.77V27.57A2.77,2.77,0,0,1,20.1,24.8H73.66a2.77,2.77,0,0,1,2.77,2.77V63.5A2.77,2.77,0,0,1,73.66,66.27ZM20.1,26.3a1.27,1.27,0,0,0-1.27,1.27V63.5a1.27,1.27,0,0,0,1.27,1.27H73.66a1.27,1.27,0,0,0,1.27-1.27V27.57a1.27,1.27,0,0,0-1.27-1.27Z"/><path class="cls-4" d="M14,64.49h64.9a0,0,0,0,1,0,0v2.06a2,2,0,0,1-2,2H16a2,2,0,0,1-2-2V64.49A0,0,0,0,1,14,64.49Z"/><path class="cls-2" d="M76.92,69.3H16a2.76,2.76,0,0,1-2.75-2.75V63.74h66.4v2.81A2.75,2.75,0,0,1,76.92,69.3ZM14.77,65.24v1.31A1.25,1.25,0,0,0,16,67.8h60.9a1.25,1.25,0,0,0,1.25-1.25V65.24Z"/><path class="cls-5" d="M85.16,71.53H68.32A1.53,1.53,0,0,1,66.79,70V40.3a1.53,1.53,0,0,1,1.53-1.53H85.16a1.53,1.53,0,0,1,1.52,1.53V70A1.53,1.53,0,0,1,85.16,71.53Z"/><path class="cls-2" d="M85.16,72.28H68.32A2.28,2.28,0,0,1,66,70V40.3A2.29,2.29,0,0,1,68.32,38H85.16a2.28,2.28,0,0,1,2.27,2.28V70A2.28,2.28,0,0,1,85.16,72.28ZM68.32,39.52a.78.78,0,0,0-.78.78V70a.78.78,0,0,0,.78.78H85.16a.78.78,0,0,0,.77-.78V40.3a.78.78,0,0,0-.77-.78Z"/><path class="cls-2" d="M84.69,65.74H68.79a.75.75,0,0,1,0-1.5h15.9a.75.75,0,0,1,0,1.5Z"/><path class="cls-2" d="M76.74,69.57A1.28,1.28,0,1,1,78,68.29,1.28,1.28,0,0,1,76.74,69.57Zm0-1.5a.22.22,0,0,0-.22.22c0,.24.44.24.44,0A.22.22,0,0,0,76.74,68.07Z"/><path class="cls-2" d="M78.57,42.84H74.63a.75.75,0,0,1,0-1.5h3.94a.75.75,0,0,1,0,1.5Z"/><g class="cls-1"><path class="cls-2" d="M82.38,58.87H71.1a.75.75,0,0,1,0-1.5H82.38a.75.75,0,0,1,0,1.5Z"/></g><g class="cls-1"><path class="cls-2" d="M81.27,62H72.2a.75.75,0,0,1,0-1.5h9.07a.75.75,0,0,1,0,1.5Z"/></g><g class="cls-3"><circle class="cls-2" cx="76.74" cy="50.69" r="4.3"/></g></svg>