<svg xmlns="http://www.w3.org/2000/svg" viewBox="0 0 100 100"><defs><style>.cls-1{fill:#e8f4f9;}.cls-2{fill:#58b8f5;}.cls-3{opacity:0.5;}</style></defs><rect class="cls-1" x="23.21" y="28.16" width="51.79" height="7.11"/><path class="cls-2" d="M73.38,28h-49A2.38,2.38,0,0,0,22,30.35v39.9a2.38,2.38,0,0,0,2.37,2.37H73.38a2.38,2.38,0,0,0,2.37-2.37V30.35A2.37,2.37,0,0,0,73.38,28Zm-49,1.5H73.38a.87.87,0,0,1,.87.87v4.16H23.46V30.35A.87.87,0,0,1,24.33,29.48ZM73.38,71.12h-49a.87.87,0,0,1-.87-.87V36H74.25V70.25A.87.87,0,0,1,73.38,71.12Z"/><rect class="cls-1" x="27.61" y="43.55" width="42.24" height="10.97"/><g class="cls-3"><path class="cls-2" d="M68,64.07H51.42a.75.75,0,1,1,0-1.5H68a.75.75,0,0,1,0,1.5Z"/></g><g class="cls-3"><path class="cls-2" d="M68,60.56H51.42a.75.75,0,0,1,0-1.5H68a.75.75,0,0,1,0,1.5Z"/></g><g class="cls-3"><path class="cls-2" d="M45.71,64.07H29.11a.75.75,0,1,1,0-1.5h16.6a.75.75,0,0,1,0,1.5Z"/></g><g class="cls-3"><path class="cls-2" d="M45.71,60.56H29.11a.75.75,0,0,1,0-1.5h16.6a.75.75,0,1,1,0,1.5Z"/></g><path class="cls-2" d="M44.77,32.73H28.18a.75.75,0,1,1,0-1.5H44.77a.75.75,0,0,1,0,1.5Z"/><path class="cls-2" d="M74,23a1,1,0,0,1-1-1L73,17.81a1,1,0,0,1,1-1,1,1,0,0,1,1,1L75,22a1,1,0,0,1-1,1Z"/><path class="cls-2" d="M78.65,25.25a1,1,0,0,1-.8-1.59l2.88-3.88a1,1,0,0,1,1.4-.2,1,1,0,0,1,.2,1.39l-2.87,3.88A1,1,0,0,1,78.65,25.25Z"/><path class="cls-2" d="M82.42,30a1,1,0,0,1-.2-2l5-1a1,1,0,0,1,.4,2l-5,1Z"/></svg>