<svg xmlns="http://www.w3.org/2000/svg" viewBox="0 0 100 100"><defs><style>.cls-1{fill:#e8f4f9;}.cls-2,.cls-3{fill:#58b8f5;}.cls-3{opacity:0.3;}.cls-4{opacity:0.5;}.cls-5{fill:#fff;}</style></defs><polygon class="cls-1" points="74.3 31.68 74.3 67.52 22.06 67.52 22.06 73.87 74.3 73.87 74.3 74.26 80.86 74.26 80.86 73.87 80.86 67.52 80.86 31.68 74.3 31.68"/><path class="cls-2" d="M70.75,68.27H17.1V22.13H74.89V64.26a.75.75,0,0,1-1.5,0V23.63H18.6V66.77H70.75a.75.75,0,0,1,0,1.5Z"/><polygon class="cls-3" points="24.56 51.87 67.56 51.87 56.62 37.01 42.71 46.19 36.29 42.48 24.56 51.87"/><circle class="cls-3" cx="40.98" cy="37.01" r="3.13"/><g class="cls-4"><path class="cls-2" d="M57.67,59.87H33.8a.75.75,0,0,1,0-1.5H57.67a.75.75,0,0,1,0,1.5Z"/></g><path class="cls-2" d="M78.7,32.43h1.53v1.75a.75.75,0,0,0,1.5,0V30.93h-3a.75.75,0,0,0,0,1.5Z"/><path class="cls-2" d="M80.23,61v5.37a.75.75,0,0,0,1.5,0V61a.75.75,0,1,0-1.5,0Zm0-10.74v5.37a.75.75,0,0,0,1.5,0V50.28a.75.75,0,1,0-1.5,0Zm0-10.73v5.36a.75.75,0,0,0,1.5,0V39.55a.75.75,0,0,0-1.5,0Z"/><path class="cls-2" d="M80.23,71.76v1.75H78.48a.75.75,0,0,0,0,1.5h3.25V71.76a.75.75,0,0,0-1.5,0Z"/><path class="cls-2" d="M34.36,73.51h-4.9a.75.75,0,1,0,0,1.5h4.9a.75.75,0,0,0,0-1.5Zm9.81,0H39.26a.75.75,0,0,0,0,1.5h4.91a.75.75,0,0,0,0-1.5Zm9.8,0h-4.9a.75.75,0,0,0,0,1.5H54a.75.75,0,1,0,0-1.5Zm9.8,0h-4.9a.75.75,0,1,0,0,1.5h4.9a.75.75,0,0,0,0-1.5Zm9.81,0H68.67a.75.75,0,0,0,0,1.5h4.91a.75.75,0,0,0,0-1.5Z"/><path class="cls-2" d="M24.56,73.51H22.81V71.77a.75.75,0,0,0-1.5,0V75h3.25a.75.75,0,1,0,0-1.5Z"/><path class="cls-5" d="M86.13,74.16l-5.78-5.78,4.5-2.75a1,1,0,0,0,.48-.91,1,1,0,0,0-.61-.84L66.34,56.55a1,1,0,0,0-1.26,1.26l7.33,18.38a1,1,0,0,0,.84.61,1,1,0,0,0,.91-.48l2.75-4.5,5.78,5.78a1,1,0,0,0,1.37,0l2.07-2.07A1,1,0,0,0,86.13,74.16Z"/><path class="cls-2" d="M83.38,78.63a1.7,1.7,0,0,1-1.22-.5L77.06,73l-2.27,3.68a1.69,1.69,0,0,1-1.6.84,1.73,1.73,0,0,1-1.47-1.08L64.39,58.09a1.72,1.72,0,0,1,2.23-2.23L85,63.19a1.72,1.72,0,0,1,.22,3.09l-3.67,2.25,5.11,5.1a1.72,1.72,0,0,1,0,2.43l-2.07,2.07A1.72,1.72,0,0,1,83.38,78.63Zm-6.61-8,6.45,6.45a.23.23,0,0,0,.31,0L85.6,75a.23.23,0,0,0,0-.31l-6.45-6.45L84.46,65a.23.23,0,0,0,0-.41L66.07,57.25a.23.23,0,0,0-.24,0,.23.23,0,0,0,0,.24l7.33,18.38a.23.23,0,0,0,.19.14.2.2,0,0,0,.2-.11Z"/></svg>